<svg xmlns="http://www.w3.org/2000/svg" viewBox="0 0 512 640" x="0px" y="0px"><path d="M349.657,18.343A8,8,0,0,0,344,16H120A56.063,56.063,0,0,0,64,72V440a56.063,56.063,0,0,0,56,56H392a56.063,56.063,0,0,0,56-56V120a8,8,0,0,0-2.343-5.657ZM352,43.313,420.687,112H392a40.045,40.045,0,0,1-40-40ZM120,32H336V72a56.063,56.063,0,0,0,56,56h40V352H80V72A40.045,40.045,0,0,1,120,32ZM392,480H120a40.045,40.045,0,0,1-40-40V368H432v72A40.045,40.045,0,0,1,392,480Z"/><path d="M200,400a10.689,10.689,0,0,1,4.589,1.058,8,8,0,0,0,6.822-14.473A26.586,26.586,0,0,0,200,384c-17.645,0-32,17.944-32,40s14.355,40,32,40a26.587,26.587,0,0,0,11.412-2.585,8,8,0,0,0-6.824-14.473A10.678,10.678,0,0,1,200,448c-8.673,0-16-10.99-16-24S191.327,400,200,400Z"/><path d="M272,416h-8v-8a8,8,0,0,0-16,0v8h-8a8,8,0,0,0,0,16h8v8a8,8,0,0,0,16,0v-8h8a8,8,0,0,0,0-16Z"/><path d="M336,416h-8v-8a8,8,0,0,0-16,0v8h-8a8,8,0,0,0,0,16h8v8a8,8,0,0,0,16,0v-8h8a8,8,0,0,0,0-16Z"/><path d="M240,144a8,8,0,0,0,8-8V120a8,8,0,0,0-16,0v16A8,8,0,0,0,240,144Z"/><path d="M208,176a8,8,0,0,0,8-8V120a8,8,0,0,0-16,0v48A8,8,0,0,0,208,176Z"/><path d="M176,304a8,8,0,0,0,8-8V248a8,8,0,0,0-16,0v48A8,8,0,0,0,176,304Z"/><path d="M336,304a8,8,0,0,0,8-8V216a8,8,0,0,0-16,0v80A8,8,0,0,0,336,304Z"/><path d="M176,192a8,8,0,0,0,8-8V168a8,8,0,0,0-16,0v16A8,8,0,0,0,176,192Z"/><path d="M208,272a8,8,0,0,0,8-8V248a8,8,0,0,0-16,0v16A8,8,0,0,0,208,272Z"/><circle cx="208" cy="296" r="8"/><circle cx="176" cy="216" r="8"/><circle cx="240" cy="168" r="8"/><path d="M240,256a8,8,0,0,0,8-8V200a8,8,0,0,0-16,0v48A8,8,0,0,0,240,256Z"/><path d="M208,224a8,8,0,0,0,8-8V200a8,8,0,0,0-16,0v16A8,8,0,0,0,208,224Z"/><circle cx="336" cy="184" r="8"/><path d="M272,304a8,8,0,0,0,8-8V248a8,8,0,0,0-16,0v48A8,8,0,0,0,272,304Z"/><path d="M272,176a8,8,0,0,0,8-8V152a8,8,0,0,0-16,0v16A8,8,0,0,0,272,176Z"/><circle cx="272" cy="120" r="8"/><path d="M272,224a8,8,0,0,0,8-8V200a8,8,0,0,0-16,0v16A8,8,0,0,0,272,224Z"/><path d="M176,144a8,8,0,0,0,8-8V120a8,8,0,0,0-16,0v16A8,8,0,0,0,176,144Z"/><path d="M304,208a8,8,0,0,0,8-8V120a8,8,0,0,0-16,0v80A8,8,0,0,0,304,208Z"/><circle cx="304" cy="232" r="8"/><path d="M304,304a8,8,0,0,0,8-8V264a8,8,0,0,0-16,0v32A8,8,0,0,0,304,304Z"/><path d="M240,304a8,8,0,0,0,8-8V280a8,8,0,0,0-16,0v16A8,8,0,0,0,240,304Z"/><path d="M336,160a8,8,0,0,0,8-8V136a8,8,0,0,0-16,0v16A8,8,0,0,0,336,160Z"/><text x="0" y="527" fill="#000000" font-size="5px" font-weight="bold" font-family="'Helvetica Neue', Helvetica, Arial-Unicode, Arial, Sans-serif">Created by iconixar</text><text x="0" y="532" fill="#000000" font-size="5px" font-weight="bold" font-family="'Helvetica Neue', Helvetica, Arial-Unicode, Arial, Sans-serif">from the Noun Project</text></svg>