<svg xmlns="http://www.w3.org/2000/svg" enable-background="new 0 0 24 24" viewBox="0 0 24 24" id="css-alt"><polygon fill="#2062AF" points="20.667 21.667 12 24 3.333 21.667 1.333 0 22.667 0 20.667 21.667"></polygon><polygon fill="#3C9CD7" points="12 1.755 12 22.139 12.02 22.144 19.033 20.256 20.651 1.755 12 1.755"></polygon><polygon fill="#FFF" points="11.992 7.172 5.789 9.756 5.995 12.313 11.992 9.75 18.372 7.022 18.636 4.405 11.992 7.172"></polygon><defs><polyline id="a" points="18.636 4.405 18.636 4.405 18.372 7.022 12.353 7.022 12 7.169 12 9.746 18.372 7.022 18.636 4.405"></polyline></defs><linearGradient id="b" x1="-1765.496" x2="-1764.496" y1="-434.341" y2="-434.341" gradientTransform="matrix(12.3477 0 0 -12.3477 21805.598 -5348.502)" gradientUnits="userSpaceOnUse"><stop offset="0" stop-color="#e8e7e5"></stop><stop offset="1" stop-color="#fff"></stop></linearGradient><polygon fill="url(#b)" points="18.146 9.756 12 9.756 12 12.332 15.206 12.343 15.001 15.753 12 16.598 12 19.456 12.002 19.457 17.44 17.87 18.146 9.756"></polygon><linearGradient id="c" x1="-1766.168" x2="-1765.168" y1="-437.313" y2="-437.313" gradientTransform="matrix(13.4056 0 0 -13.4056 23681.777 -5856.733)" gradientUnits="userSpaceOnUse"><stop offset="0" stop-color="#e8e7e5"></stop><stop offset="1" stop-color="#fff"></stop></linearGradient><polygon fill="url(#c)" points="18.636 4.405 12 4.405 12 7.022 12.353 7.022 18.372 7.022 18.636 4.405"></polygon><path fill="#1C5598" d="M12,9.746L11.992,9.75l-0.015,0.006h0.015H12V9.746L12,9.746z M12,0H1.333l2,21.667L12,24v-1.861v-2.683l-0.008-0.002v0.003L6.525,17.84l-0.353-4.087h2.704h0.01l0.176,2.117l2.906,0.734l0.025-0.007V16.6L12,16.598v-4.265h-0.008l-5.997-0.019L5.789,9.756l6.203-2.584L12,7.169V7.022H5.554L5.23,4.405h6.762H12v-2.65V0L12,0z"></path><defs><polyline id="d" points="11.992 7.172 11.992 7.172 5.789 9.756 11.977 9.756 11.992 9.75 11.992 7.172"></polyline></defs><defs><polyline id="e" points="12 7.169 12 7.169 11.992 7.172 11.992 9.75 12 9.746 12 7.169"></polyline></defs><linearGradient id="f" x1="-1765.496" x2="-1764.496" y1="-434.341" y2="-434.341" gradientTransform="matrix(12.3477 0 0 -12.3477 21805.598 -5348.502)" gradientUnits="userSpaceOnUse"><stop offset="0" stop-color="#cac9c7"></stop><stop offset="1" stop-color="#dedede"></stop></linearGradient><path fill="url(#f)" d="M12,16.598L12,16.598L11.992,16.6v2.854L12,19.456V16.598L12,16.598z M8.886,13.754h-0.01l0.177,2.117l2.91,0.735l0.005-0.001l-2.906-0.734L8.886,13.754L8.886,13.754z M12,9.756L12,9.756h-0.008v2.576H12V9.756L12,9.756z"></path><polygon fill="#1A5191" points="6.005 12.309 5.995 12.313 11.992 12.332 6.005 12.313 6.005 12.309"></polygon><defs><polyline id="g" points="11.977 9.756 5.789 9.756 5.995 12.313 6.005 12.309 5.799 9.756 11.977 9.756"></polyline></defs><linearGradient id="h" x1="-1765.496" x2="-1764.496" y1="-434.053" y2="-434.053" gradientTransform="matrix(12.3477 0 0 -12.3477 21805.598 -5348.502)" gradientUnits="userSpaceOnUse"><stop offset="0" stop-color="#c0bfbd"></stop><stop offset="1" stop-color="#d3d3d3"></stop></linearGradient><polygon fill="url(#h)" points="11.992 9.756 11.977 9.756 5.799 9.756 6.005 12.309 6.005 12.313 11.992 12.332 11.992 9.756"></polygon><path fill="#1A5191" d="M11.992,16.597l-0.025,0.007l0.005,0.001l0.019-0.005V16.597L11.992,16.597z M8.876,13.754H6.172l0.353,4.087l5.468,1.616v-0.003L6.533,17.84l-0.353-4.087H8.876L8.876,13.754z"></path><linearGradient id="i" x1="-1765.496" x2="-1764.496" y1="-434.503" y2="-434.503" gradientTransform="matrix(12.3477 0 0 -12.3477 21805.598 -5348.502)" gradientUnits="userSpaceOnUse"><stop offset="0" stop-color="#c0bfbd"></stop><stop offset="1" stop-color="#d3d3d3"></stop></linearGradient><polygon fill="url(#i)" points="8.876 13.754 6.181 13.754 6.533 17.84 11.992 19.454 11.992 16.6 11.973 16.606 11.968 16.604 11.963 16.606 9.053 15.871 8.876 13.754"></polygon><linearGradient id="j" x1="-1766.168" x2="-1765.168" y1="-437.313" y2="-437.313" gradientTransform="matrix(13.4056 0 0 -13.4056 23681.777 -5856.733)" gradientUnits="userSpaceOnUse"><stop offset="0" stop-color="#cac9c7"></stop><stop offset="1" stop-color="#dedede"></stop></linearGradient><polygon fill="url(#j)" points="12 4.405 12 4.405 11.992 4.405 11.992 7.022 5.554 7.022 5.23 4.405 5.554 7.022 12 7.022 12 4.405"></polygon><linearGradient id="k" x1="-1766.168" x2="-1765.168" y1="-437.313" y2="-437.313" gradientTransform="matrix(13.4056 0 0 -13.4056 23681.777 -5856.733)" gradientUnits="userSpaceOnUse"><stop offset="0" stop-color="#c0bfbd"></stop><stop offset="1" stop-color="#d3d3d3"></stop></linearGradient><polygon fill="url(#k)" points="11.992 4.405 5.23 4.405 5.554 7.022 11.992 7.022 11.992 4.405"></polygon></svg>